<?xml version="1.0" encoding="UTF-8" standalone="no"?>
<!DOCTYPE svg PUBLIC "-//W3C//DTD SVG 1.1//EN" "http://www.w3.org/Graphics/SVG/1.1/DTD/svg11.dtd">
<svg width="100%" height="100%" viewBox="0 0 1920 1200" version="1.1" xmlns="http://www.w3.org/2000/svg" xmlns:xlink="http://www.w3.org/1999/xlink" xml:space="preserve" style="fill-rule:evenodd;clip-rule:evenodd;stroke-linecap:round;stroke-linejoin:round;stroke-miterlimit:1.5;">
    <g transform="matrix(1,0,0,1,602.984,34.1722)">
        <path d="M446.112,553.833L471.262,553.833C499.121,553.833 513.05,541.709 513.05,517.462C513.05,493.214 499.121,481.09 471.262,481.09L446.112,481.09L446.112,553.833ZM446.112,711.7L370.273,711.7L370.273,419.955L490.995,419.955C523.755,419.955 548.841,428.468 566.253,445.493C583.665,462.518 592.371,486.507 592.371,517.462C592.371,548.416 583.665,572.406 566.253,589.431C548.841,606.455 523.755,614.968 490.995,614.968L446.112,614.968L446.112,711.7Z" style="fill:rgb(95,98,228);fill-rule:nonzero;"/>
    </g>
    <g transform="matrix(1,0,0,1,574.984,34.1722)">
        <rect x="632.612" y="419.955" width="75.838" height="291.745" style="fill:rgb(95,98,228);fill-rule:nonzero;"/>
    </g>
    <g transform="matrix(1,0,0,1,537.984,34.1722)">
        <path d="M979.688,517.462C962.147,496.052 940.479,485.346 914.683,485.346C903.333,485.346 892.822,487.41 883.149,491.537C873.475,495.665 865.156,501.275 858.192,508.369C851.227,515.463 845.745,523.91 841.747,533.713C837.749,543.515 835.75,554.091 835.75,565.441C835.75,577.049 837.749,587.754 841.747,597.556C845.745,607.358 851.291,615.871 858.385,623.093C865.479,630.316 873.798,635.991 883.342,640.118C892.886,644.246 903.204,646.309 914.296,646.309C938.544,646.309 960.341,635.991 979.688,615.355L979.688,705.123L971.949,707.831C960.341,711.958 949.507,714.989 939.447,716.924C929.387,718.859 919.455,719.826 909.653,719.826C889.533,719.826 870.251,716.021 851.807,708.411C833.364,700.802 817.113,690.097 803.054,676.296C788.996,662.496 777.71,646.116 769.198,627.156C760.685,608.197 756.429,587.496 756.429,565.054C756.429,542.612 760.621,522.04 769.004,503.339C777.388,484.637 788.609,468.515 802.667,454.973C816.726,441.43 833.041,430.854 851.614,423.244C870.186,415.635 889.662,411.83 910.04,411.83C921.648,411.83 933.063,413.055 944.283,415.506C955.504,417.956 967.306,421.761 979.688,426.92L979.688,517.462Z" style="fill:rgb(95,98,228);fill-rule:nonzero;"/>
    </g>
    <g transform="matrix(1,0,0,1,513.984,34.1722)">
        <path d="M1187.86,494.633C1179.6,487.926 1171.35,482.96 1163.09,479.736C1154.84,476.512 1146.84,474.899 1139.1,474.899C1129.3,474.899 1121.3,477.221 1115.11,481.864C1108.92,486.507 1105.83,492.569 1105.83,500.05C1105.83,505.209 1107.37,509.465 1110.47,512.818C1113.57,516.172 1117.63,519.074 1122.66,521.524C1127.69,523.975 1133.36,526.103 1139.68,527.909C1146,529.714 1152.26,531.649 1158.45,533.713C1183.21,541.967 1201.33,552.995 1212.81,566.795C1224.29,580.596 1230.03,598.588 1230.03,620.772C1230.03,635.733 1227.52,649.276 1222.49,661.399C1217.46,673.523 1210.1,683.906 1200.43,692.547C1190.76,701.189 1178.89,707.896 1164.83,712.668C1150.78,717.44 1134.85,719.826 1117.05,719.826C1080.16,719.826 1045.98,708.863 1014.51,686.937L1047.01,625.802C1058.36,635.862 1069.58,643.343 1080.68,648.244C1091.77,653.145 1102.73,655.596 1113.57,655.596C1125.95,655.596 1135.17,652.758 1141.23,647.083C1147.29,641.408 1150.32,634.959 1150.32,627.737C1150.32,623.351 1149.55,619.547 1148,616.322C1146.45,613.098 1143.88,610.131 1140.26,607.423C1136.65,604.714 1131.94,602.199 1126.14,599.878C1120.34,597.556 1113.31,594.977 1105.05,592.139C1095.25,589.044 1085.64,585.626 1076.23,581.885C1066.81,578.145 1058.43,573.18 1051.08,566.989C1043.72,560.798 1037.79,552.995 1033.28,543.579C1028.76,534.164 1026.51,522.234 1026.51,507.788C1026.51,493.343 1028.89,480.252 1033.66,468.515C1038.44,456.778 1045.14,446.718 1053.79,438.335C1062.43,429.951 1073,423.438 1085.51,418.795C1098.02,414.151 1112.02,411.83 1127.5,411.83C1141.94,411.83 1157.03,413.829 1172.77,417.827C1188.5,421.826 1203.59,427.694 1218.04,435.433L1187.86,494.633Z" style="fill:rgb(95,98,228);fill-rule:nonzero;"/>
    </g>
    <g transform="matrix(1.83944,0,0,1.83944,-459.327,21.0105)">
        <circle cx="539.186" cy="314.765" r="193.802" style="fill:none;"/>
        <clipPath id="_clip1">
            <circle cx="539.186" cy="314.765" r="193.802"/>
        </clipPath>
        <g clip-path="url(#_clip1)">
            <g transform="matrix(0.755946,0,0,0.755946,65.7842,-114.44)">
                <g transform="matrix(7.63444,0,0,7.63444,142.932,148.642)">
                    <rect x="12" y="20" width="104" height="70" style="fill:url(#_Linear2);"/>
                </g>
                <g transform="matrix(7.63444,0,0,7.63444,121.358,134.258)">
                    <path d="M68,49C47.85,67.6 44.42,45.32 12,62.64L12,75.11C42.12,59.51 44.59,93 73,62C97.73,35 103.93,62 116,62.83L116,25C104.5,42 94,25 68,49Z" style="fill:url(#_Linear3);fill-rule:nonzero;"/>
                </g>
                <g transform="matrix(7.63444,0,0,7.63444,142.932,164.463)">
                    <path d="M82,20C72.37,32.25 57.12,45.51 43,32C29.21,18.81 20.46,28.26 12,34.29L12,20L82,20Z" style="fill:url(#_Linear4);fill-rule:nonzero;"/>
                </g>
                <g transform="matrix(7.63444,0,0,7.63444,142.932,134.258)">
                    <path d="M116,73.83L116,90L12,90L12,82.11C45,62 50.91,108.77 73,73C94,39 103.93,73 116,73.83Z" style="fill:url(#_Linear5);fill-rule:nonzero;"/>
                </g>
            </g>
        </g>
        <circle cx="539.186" cy="314.765" r="193.802" style="fill:none;stroke:url(#_Linear6);stroke-width:10.87px;"/>
    </g>
    <defs>
        <linearGradient id="_Linear2" x1="0" y1="0" x2="1" y2="0" gradientUnits="userSpaceOnUse" gradientTransform="matrix(104,0,0,104,12,55)"><stop offset="0" style="stop-color:rgb(43,83,207);stop-opacity:1"/><stop offset="1" style="stop-color:rgb(158,116,254);stop-opacity:1"/></linearGradient>
        <linearGradient id="_Linear3" x1="0" y1="0" x2="1" y2="0" gradientUnits="userSpaceOnUse" gradientTransform="matrix(-77.06,77.05,-77.05,-77.06,108.87,17.87)"><stop offset="0" style="stop-color:rgb(116,230,243);stop-opacity:1"/><stop offset="1" style="stop-color:rgb(70,107,227);stop-opacity:1"/></linearGradient>
        <linearGradient id="_Linear4" x1="0" y1="0" x2="1" y2="0" gradientUnits="userSpaceOnUse" gradientTransform="matrix(-35.44,-35.44,35.44,-35.44,61.38,41.5)"><stop offset="0" style="stop-color:rgb(18,173,180);stop-opacity:1"/><stop offset="1" style="stop-color:rgb(209,233,70);stop-opacity:1"/></linearGradient>
        <linearGradient id="_Linear5" x1="0" y1="0" x2="1" y2="0" gradientUnits="userSpaceOnUse" gradientTransform="matrix(-55.94,-55.95,55.95,-55.94,94.04,111.96)"><stop offset="0" style="stop-color:rgb(239,237,88);stop-opacity:1"/><stop offset="1" style="stop-color:rgb(242,62,46);stop-opacity:1"/></linearGradient>
        <linearGradient id="_Linear6" x1="0" y1="0" x2="1" y2="0" gradientUnits="userSpaceOnUse" gradientTransform="matrix(387.604,0,0,387.604,345.384,314.765)"><stop offset="0" style="stop-color:rgb(116,230,243);stop-opacity:1"/><stop offset="1" style="stop-color:rgb(70,107,227);stop-opacity:1"/></linearGradient>
    </defs>
</svg>
