<?xml version="1.0" encoding="UTF-8" standalone="no"?><!DOCTYPE svg PUBLIC "-//W3C//DTD SVG 1.1//EN" "http://www.w3.org/Graphics/SVG/1.1/DTD/svg11.dtd"><svg width="100%" height="100%" viewBox="0 0 117 40" version="1.1" xmlns="http://www.w3.org/2000/svg" xmlns:xlink="http://www.w3.org/1999/xlink" xml:space="preserve" xmlns:serif="http://www.serif.com/" style="fill-rule:evenodd;clip-rule:evenodd;stroke-linejoin:round;stroke-miterlimit:1.41421;"><clipPath id="_clip1"><rect x="0" y="0" width="40" height="40"/></clipPath><g clip-path="url(#_clip1)"><circle cx="20" cy="20" r="20" style="fill:none;"/><clipPath id="_clip2"><circle cx="20" cy="20" r="20"/></clipPath><g clip-path="url(#_clip2)"><g><rect x="-10.557" y="-0.786" width="61.94" height="41.691" style="fill:url(#_Linear3);"/><path d="M21.113,15.364c-12.001,11.078 -14.044,-2.192 -33.353,8.124l0,7.427c17.939,-9.291 19.41,10.655 36.331,-7.808c14.728,-16.081 18.421,0 25.609,0.494l0,-22.531c-6.849,10.125 -13.102,0 -28.587,14.294Z" style="fill:url(#_Linear4);fill-rule:nonzero;"/><path d="M31.134,0.449c-5.736,7.295 -14.818,15.193 -23.228,7.147c-8.213,-7.856 -13.424,-2.228 -18.463,1.363l0,-8.51l41.691,0Z" style="fill:url(#_Linear5);fill-rule:nonzero;"/><path d="M51.384,30.152l0,9.631l-61.941,0l0,-4.699c19.654,-11.977 23.174,15.878 36.331,-5.426c12.507,-20.25 18.421,0 25.61,0.494Z" style="fill:url(#_Linear6);fill-rule:nonzero;"/></g></g><path d="M20.129,0l0.129,0.002l0.129,0.002l0.129,0.003l0.128,0.003l0.129,0.005l0.128,0.005l0.128,0.006l0.127,0.007l0.128,0.008l0.127,0.008l0.127,0.009l0.127,0.01l0.126,0.011l0.127,0.012l0.126,0.012l0.126,0.014l0.125,0.014l0.126,0.014l0.125,0.016l0.125,0.016l0.124,0.017l0.125,0.018l0.124,0.019l0.124,0.019l0.124,0.02l0.123,0.021l0.123,0.022l0.123,0.022l0.123,0.023l0.122,0.024l0.123,0.025l0.121,0.025l0.122,0.026l0.121,0.027l0.121,0.028l0.121,0.028l0.121,0.029l0.12,0.03l0.12,0.03l0.119,0.031l0.12,0.032l0.119,0.033l0.119,0.033l0.118,0.034l0.118,0.035l0.118,0.036l0.118,0.036l0.117,0.037l0.117,0.037l0.116,0.039l0.117,0.039l0.116,0.039l0.115,0.041l0.116,0.041l0.115,0.041l0.114,0.043l0.115,0.043l0.114,0.044l0.113,0.044l0.227,0.091l0.225,0.094l0.223,0.096l0.223,0.099l0.22,0.101l0.22,0.104l0.217,0.107l0.217,0.109l0.215,0.112l0.213,0.114l0.212,0.117l0.21,0.119l0.208,0.122l0.207,0.124l0.206,0.127l0.204,0.129l0.202,0.131l0.2,0.134l0.199,0.136l0.197,0.138l0.195,0.141l0.193,0.142l0.192,0.146l0.19,0.147l0.188,0.15l0.186,0.151l0.184,0.154l0.183,0.157l0.18,0.158l0.179,0.16l0.176,0.163l0.175,0.164l0.173,0.167l0.17,0.169l0.169,0.17l0.167,0.173l0.164,0.175l0.163,0.176l0.16,0.179l0.158,0.18l0.157,0.183l0.154,0.184l0.151,0.186l0.15,0.188l0.147,0.19l0.146,0.192l0.142,0.193l0.141,0.195l0.138,0.197l0.136,0.199l0.134,0.2l0.131,0.202l0.129,0.204l0.127,0.206l0.124,0.207l0.122,0.208l0.119,0.21l0.117,0.212l0.114,0.213l0.112,0.215l0.109,0.217l0.107,0.217l0.104,0.22l0.101,0.22l0.099,0.223l0.096,0.223l0.094,0.225l0.091,0.227l0.044,0.113l0.044,0.114l0.043,0.115l0.043,0.114l0.041,0.115l0.041,0.116l0.041,0.115l0.039,0.116l0.039,0.117l0.039,0.116l0.037,0.117l0.037,0.117l0.036,0.118l0.036,0.118l0.035,0.118l0.034,0.118l0.033,0.119l0.033,0.119l0.032,0.12l0.031,0.119l0.03,0.12l0.03,0.12l0.029,0.121l0.028,0.121l0.028,0.121l0.027,0.121l0.026,0.122l0.025,0.121l0.025,0.123l0.024,0.122l0.023,0.123l0.022,0.123l0.022,0.123l0.021,0.123l0.02,0.124l0.019,0.124l0.019,0.124l0.018,0.125l0.017,0.124l0.016,0.125l0.016,0.125l0.014,0.126l0.014,0.125l0.014,0.126l0.012,0.126l0.012,0.127l0.011,0.126l0.01,0.127l0.009,0.127l0.008,0.127l0.008,0.128l0.007,0.127l0.006,0.128l0.005,0.128l0.005,0.129l0.003,0.128l0.003,0.129l0.002,0.129l0.002,0.129l0,0.129l0,0.129l-0.002,0.129l-0.002,0.129l-0.003,0.129l-0.003,0.128l-0.005,0.129l-0.005,0.128l-0.006,0.128l-0.007,0.127l-0.008,0.128l-0.008,0.127l-0.009,0.127l-0.01,0.127l-0.011,0.126l-0.012,0.127l-0.012,0.126l-0.014,0.126l-0.014,0.125l-0.014,0.126l-0.016,0.125l-0.016,0.125l-0.017,0.124l-0.018,0.125l-0.019,0.124l-0.019,0.124l-0.02,0.124l-0.021,0.123l-0.022,0.123l-0.022,0.123l-0.023,0.123l-0.024,0.122l-0.025,0.123l-0.025,0.121l-0.026,0.122l-0.027,0.121l-0.028,0.121l-0.028,0.121l-0.029,0.121l-0.03,0.12l-0.03,0.12l-0.031,0.119l-0.032,0.12l-0.033,0.119l-0.033,0.119l-0.034,0.118l-0.035,0.118l-0.036,0.118l-0.036,0.118l-0.037,0.117l-0.037,0.117l-0.039,0.116l-0.039,0.117l-0.039,0.116l-0.041,0.115l-0.041,0.116l-0.041,0.115l-0.043,0.114l-0.043,0.115l-0.044,0.114l-0.044,0.113l-0.091,0.227l-0.094,0.225l-0.096,0.223l-0.099,0.223l-0.101,0.22l-0.104,0.22l-0.107,0.217l-0.109,0.217l-0.112,0.215l-0.114,0.213l-0.117,0.212l-0.119,0.21l-0.122,0.208l-0.124,0.207l-0.127,0.206l-0.129,0.204l-0.131,0.202l-0.134,0.2l-0.136,0.199l-0.138,0.197l-0.141,0.195l-0.142,0.193l-0.146,0.192l-0.147,0.19l-0.15,0.188l-0.151,0.186l-0.154,0.184l-0.157,0.183l-0.158,0.18l-0.16,0.179l-0.163,0.176l-0.164,0.175l-0.167,0.173l-0.169,0.17l-0.17,0.169l-0.173,0.167l-0.175,0.164l-0.176,0.163l-0.179,0.16l-0.18,0.158l-0.183,0.157l-0.184,0.154l-0.186,0.151l-0.188,0.15l-0.19,0.147l-0.192,0.146l-0.193,0.142l-0.195,0.141l-0.197,0.138l-0.199,0.136l-0.2,0.134l-0.202,0.131l-0.204,0.129l-0.206,0.127l-0.207,0.124l-0.208,0.122l-0.21,0.119l-0.212,0.117l-0.213,0.114l-0.215,0.112l-0.217,0.109l-0.217,0.107l-0.22,0.104l-0.22,0.101l-0.223,0.099l-0.223,0.096l-0.225,0.094l-0.227,0.091l-0.113,0.044l-0.114,0.044l-0.115,0.043l-0.114,0.043l-0.115,0.041l-0.116,0.041l-0.115,0.041l-0.116,0.039l-0.117,0.039l-0.116,0.039l-0.117,0.037l-0.117,0.037l-0.118,0.036l-0.118,0.036l-0.118,0.035l-0.118,0.034l-0.119,0.033l-0.119,0.033l-0.12,0.032l-0.119,0.031l-0.12,0.03l-0.12,0.03l-0.121,0.029l-0.121,0.028l-0.121,0.028l-0.121,0.027l-0.122,0.026l-0.121,0.025l-0.123,0.025l-0.122,0.024l-0.123,0.023l-0.123,0.022l-0.123,0.022l-0.123,0.021l-0.124,0.02l-0.124,0.019l-0.124,0.019l-0.125,0.018l-0.124,0.017l-0.125,0.016l-0.125,0.016l-0.126,0.014l-0.125,0.014l-0.126,0.014l-0.126,0.012l-0.127,0.012l-0.126,0.011l-0.127,0.01l-0.127,0.009l-0.127,0.008l-0.128,0.008l-0.127,0.007l-0.128,0.006l-0.128,0.005l-0.129,0.005l-0.128,0.003l-0.129,0.003l-0.129,0.002l-0.129,0.002l-0.129,0l-0.129,0l-0.129,-0.002l-0.129,-0.002l-0.129,-0.003l-0.128,-0.003l-0.129,-0.005l-0.128,-0.005l-0.128,-0.006l-0.127,-0.007l-0.128,-0.008l-0.127,-0.008l-0.127,-0.009l-0.127,-0.01l-0.126,-0.011l-0.127,-0.012l-0.126,-0.012l-0.126,-0.014l-0.125,-0.014l-0.126,-0.014l-0.125,-0.016l-0.125,-0.016l-0.124,-0.017l-0.125,-0.018l-0.124,-0.019l-0.124,-0.019l-0.124,-0.02l-0.123,-0.021l-0.123,-0.022l-0.123,-0.022l-0.123,-0.023l-0.122,-0.024l-0.123,-0.025l-0.121,-0.025l-0.122,-0.026l-0.121,-0.027l-0.121,-0.028l-0.121,-0.028l-0.121,-0.029l-0.12,-0.03l-0.12,-0.03l-0.119,-0.031l-0.12,-0.032l-0.119,-0.033l-0.119,-0.033l-0.118,-0.034l-0.118,-0.035l-0.118,-0.036l-0.118,-0.036l-0.117,-0.037l-0.117,-0.037l-0.116,-0.039l-0.117,-0.039l-0.116,-0.039l-0.115,-0.041l-0.116,-0.041l-0.115,-0.041l-0.114,-0.043l-0.115,-0.043l-0.114,-0.044l-0.113,-0.044l-0.227,-0.091l-0.225,-0.094l-0.223,-0.096l-0.223,-0.099l-0.22,-0.101l-0.22,-0.104l-0.217,-0.107l-0.217,-0.109l-0.215,-0.112l-0.213,-0.114l-0.212,-0.117l-0.21,-0.119l-0.208,-0.122l-0.207,-0.124l-0.206,-0.127l-0.204,-0.129l-0.202,-0.131l-0.2,-0.134l-0.199,-0.136l-0.197,-0.138l-0.195,-0.141l-0.193,-0.142l-0.192,-0.146l-0.19,-0.147l-0.188,-0.15l-0.186,-0.151l-0.184,-0.154l-0.183,-0.157l-0.18,-0.158l-0.179,-0.16l-0.176,-0.163l-0.175,-0.164l-0.173,-0.167l-0.17,-0.169l-0.169,-0.17l-0.167,-0.173l-0.164,-0.175l-0.163,-0.176l-0.16,-0.179l-0.158,-0.18l-0.157,-0.183l-0.154,-0.184l-0.151,-0.186l-0.15,-0.188l-0.147,-0.19l-0.146,-0.192l-0.142,-0.193l-0.141,-0.195l-0.138,-0.197l-0.136,-0.199l-0.134,-0.2l-0.131,-0.202l-0.129,-0.204l-0.127,-0.206l-0.124,-0.207l-0.122,-0.208l-0.119,-0.21l-0.117,-0.212l-0.114,-0.213l-0.112,-0.215l-0.109,-0.217l-0.107,-0.217l-0.104,-0.22l-0.101,-0.22l-0.099,-0.223l-0.096,-0.223l-0.094,-0.225l-0.091,-0.227l-0.044,-0.113l-0.044,-0.114l-0.043,-0.115l-0.043,-0.114l-0.041,-0.115l-0.041,-0.116l-0.041,-0.115l-0.039,-0.116l-0.039,-0.117l-0.039,-0.116l-0.037,-0.117l-0.037,-0.117l-0.036,-0.118l-0.036,-0.118l-0.035,-0.118l-0.034,-0.118l-0.033,-0.119l-0.033,-0.119l-0.032,-0.12l-0.031,-0.119l-0.03,-0.12l-0.03,-0.12l-0.029,-0.121l-0.028,-0.121l-0.028,-0.121l-0.027,-0.121l-0.026,-0.122l-0.025,-0.121l-0.025,-0.123l-0.024,-0.122l-0.023,-0.123l-0.022,-0.123l-0.022,-0.123l-0.021,-0.123l-0.02,-0.124l-0.019,-0.124l-0.019,-0.124l-0.018,-0.125l-0.017,-0.124l-0.016,-0.125l-0.016,-0.125l-0.014,-0.126l-0.014,-0.125l-0.014,-0.126l-0.012,-0.126l-0.012,-0.127l-0.011,-0.126l-0.01,-0.127l-0.009,-0.127l-0.008,-0.127l-0.008,-0.128l-0.007,-0.127l-0.006,-0.128l-0.005,-0.128l-0.005,-0.129l-0.003,-0.128l-0.003,-0.129l-0.002,-0.129l-0.002,-0.129l0,-0.129l0,-0.129l0.002,-0.129l0.002,-0.129l0.003,-0.129l0.003,-0.128l0.005,-0.129l0.005,-0.128l0.006,-0.128l0.007,-0.127l0.008,-0.128l0.008,-0.127l0.009,-0.127l0.01,-0.127l0.011,-0.126l0.012,-0.127l0.012,-0.126l0.014,-0.126l0.014,-0.125l0.014,-0.126l0.016,-0.125l0.016,-0.125l0.017,-0.124l0.018,-0.125l0.019,-0.124l0.019,-0.124l0.02,-0.124l0.021,-0.123l0.022,-0.123l0.022,-0.123l0.023,-0.123l0.024,-0.122l0.025,-0.123l0.025,-0.121l0.026,-0.122l0.027,-0.121l0.028,-0.121l0.028,-0.121l0.029,-0.121l0.03,-0.12l0.03,-0.12l0.031,-0.119l0.032,-0.12l0.033,-0.119l0.033,-0.119l0.034,-0.118l0.035,-0.118l0.036,-0.118l0.036,-0.118l0.037,-0.117l0.037,-0.117l0.039,-0.116l0.039,-0.117l0.039,-0.116l0.041,-0.115l0.041,-0.116l0.041,-0.115l0.043,-0.114l0.043,-0.115l0.044,-0.114l0.044,-0.113l0.091,-0.227l0.094,-0.225l0.096,-0.223l0.099,-0.223l0.101,-0.22l0.104,-0.22l0.107,-0.217l0.109,-0.217l0.112,-0.215l0.114,-0.213l0.117,-0.212l0.119,-0.21l0.122,-0.208l0.124,-0.207l0.127,-0.206l0.129,-0.204l0.131,-0.202l0.134,-0.2l0.136,-0.199l0.138,-0.197l0.141,-0.195l0.142,-0.193l0.146,-0.192l0.147,-0.19l0.15,-0.188l0.151,-0.186l0.154,-0.184l0.157,-0.183l0.158,-0.18l0.16,-0.179l0.163,-0.176l0.164,-0.175l0.167,-0.173l0.169,-0.17l0.17,-0.169l0.173,-0.167l0.175,-0.164l0.176,-0.163l0.179,-0.16l0.18,-0.158l0.183,-0.157l0.184,-0.154l0.186,-0.151l0.188,-0.15l0.19,-0.147l0.192,-0.146l0.193,-0.142l0.195,-0.141l0.197,-0.138l0.199,-0.136l0.2,-0.134l0.202,-0.131l0.204,-0.129l0.206,-0.127l0.207,-0.124l0.208,-0.122l0.21,-0.119l0.212,-0.117l0.213,-0.114l0.215,-0.112l0.217,-0.109l0.217,-0.107l0.22,-0.104l0.22,-0.101l0.223,-0.099l0.223,-0.096l0.225,-0.094l0.227,-0.091l0.113,-0.044l0.114,-0.044l0.115,-0.043l0.114,-0.043l0.115,-0.041l0.116,-0.041l0.115,-0.041l0.116,-0.039l0.117,-0.039l0.116,-0.039l0.117,-0.037l0.117,-0.037l0.118,-0.036l0.118,-0.036l0.118,-0.035l0.118,-0.034l0.119,-0.033l0.119,-0.033l0.12,-0.032l0.119,-0.031l0.12,-0.03l0.12,-0.03l0.121,-0.029l0.121,-0.028l0.121,-0.028l0.121,-0.027l0.122,-0.026l0.121,-0.025l0.123,-0.025l0.122,-0.024l0.123,-0.023l0.123,-0.022l0.123,-0.022l0.123,-0.021l0.124,-0.02l0.124,-0.019l0.124,-0.019l0.125,-0.018l0.124,-0.017l0.125,-0.016l0.125,-0.016l0.126,-0.014l0.125,-0.014l0.126,-0.014l0.126,-0.012l0.127,-0.012l0.126,-0.011l0.127,-0.01l0.127,-0.009l0.127,-0.008l0.128,-0.008l0.127,-0.007l0.128,-0.006l0.128,-0.005l0.129,-0.005l0.128,-0.003l0.129,-0.003l0.129,-0.002l0.129,-0.002l0.129,0l0.129,0Zm-0.253,0.782l-0.124,0.001l-0.124,0.002l-0.124,0.003l-0.124,0.003l-0.123,0.004l-0.123,0.005l-0.123,0.006l-0.123,0.007l-0.122,0.007l-0.122,0.008l-0.123,0.009l-0.121,0.01l-0.122,0.01l-0.121,0.012l-0.122,0.012l-0.121,0.012l-0.12,0.014l-0.121,0.014l-0.12,0.015l-0.12,0.015l-0.12,0.017l-0.12,0.017l-0.119,0.018l-0.119,0.018l-0.119,0.02l-0.119,0.02l-0.118,0.021l-0.118,0.021l-0.118,0.022l-0.117,0.023l-0.118,0.024l-0.117,0.024l-0.117,0.025l-0.116,0.026l-0.117,0.027l-0.116,0.027l-0.115,0.028l-0.116,0.028l-0.115,0.03l-0.115,0.03l-0.115,0.03l-0.114,0.032l-0.114,0.032l-0.114,0.032l-0.113,0.034l-0.114,0.034l-0.112,0.035l-0.113,0.035l-0.112,0.036l-0.112,0.037l-0.112,0.038l-0.112,0.038l-0.111,0.038l-0.11,0.04l-0.111,0.04l-0.11,0.041l-0.11,0.041l-0.109,0.042l-0.109,0.042l-0.218,0.088l-0.216,0.09l-0.215,0.093l-0.214,0.095l-0.212,0.097l-0.21,0.1l-0.21,0.103l-0.207,0.105l-0.207,0.107l-0.205,0.11l-0.203,0.112l-0.202,0.115l-0.201,0.117l-0.199,0.119l-0.197,0.121l-0.196,0.124l-0.194,0.126l-0.192,0.129l-0.191,0.131l-0.19,0.133l-0.187,0.135l-0.186,0.137l-0.184,0.14l-0.183,0.141l-0.181,0.144l-0.178,0.146l-0.178,0.148l-0.175,0.15l-0.173,0.152l-0.172,0.154l-0.17,0.157l-0.168,0.158l-0.166,0.16l-0.164,0.162l-0.162,0.164l-0.16,0.166l-0.158,0.168l-0.157,0.17l-0.154,0.172l-0.152,0.173l-0.15,0.175l-0.148,0.178l-0.146,0.178l-0.144,0.181l-0.141,0.183l-0.14,0.184l-0.137,0.186l-0.135,0.187l-0.133,0.19l-0.131,0.191l-0.129,0.192l-0.126,0.194l-0.124,0.196l-0.121,0.197l-0.119,0.199l-0.117,0.201l-0.115,0.202l-0.112,0.203l-0.11,0.205l-0.107,0.207l-0.105,0.207l-0.103,0.21l-0.1,0.21l-0.097,0.212l-0.095,0.214l-0.093,0.215l-0.09,0.216l-0.088,0.218l-0.042,0.109l-0.042,0.109l-0.041,0.11l-0.041,0.11l-0.04,0.111l-0.04,0.11l-0.038,0.111l-0.038,0.112l-0.038,0.112l-0.037,0.112l-0.036,0.112l-0.035,0.113l-0.035,0.112l-0.034,0.114l-0.034,0.113l-0.032,0.114l-0.032,0.114l-0.032,0.114l-0.03,0.115l-0.03,0.115l-0.03,0.115l-0.028,0.116l-0.028,0.115l-0.027,0.116l-0.027,0.117l-0.026,0.116l-0.025,0.117l-0.024,0.117l-0.024,0.118l-0.023,0.117l-0.022,0.118l-0.021,0.118l-0.021,0.118l-0.02,0.119l-0.02,0.119l-0.018,0.119l-0.018,0.119l-0.017,0.12l-0.017,0.12l-0.015,0.12l-0.015,0.12l-0.014,0.121l-0.014,0.12l-0.012,0.121l-0.012,0.122l-0.012,0.121l-0.01,0.122l-0.01,0.121l-0.009,0.123l-0.008,0.122l-0.007,0.122l-0.007,0.123l-0.006,0.123l-0.005,0.123l-0.004,0.123l-0.003,0.124l-0.003,0.124l-0.002,0.124l-0.001,0.124l-0.001,0.124l0.001,0.124l0.001,0.124l0.002,0.124l0.003,0.124l0.003,0.124l0.004,0.123l0.005,0.123l0.006,0.123l0.007,0.123l0.007,0.122l0.008,0.122l0.009,0.123l0.01,0.121l0.01,0.122l0.012,0.121l0.012,0.122l0.012,0.121l0.014,0.12l0.014,0.121l0.015,0.12l0.015,0.12l0.017,0.12l0.017,0.12l0.018,0.119l0.018,0.119l0.02,0.119l0.02,0.119l0.021,0.118l0.021,0.118l0.022,0.118l0.023,0.117l0.024,0.118l0.024,0.117l0.025,0.117l0.026,0.116l0.027,0.117l0.027,0.116l0.028,0.115l0.028,0.116l0.03,0.115l0.03,0.115l0.03,0.115l0.032,0.114l0.032,0.114l0.032,0.114l0.034,0.113l0.034,0.114l0.035,0.112l0.035,0.113l0.036,0.112l0.037,0.112l0.038,0.112l0.038,0.112l0.038,0.111l0.04,0.11l0.04,0.111l0.041,0.11l0.041,0.11l0.042,0.109l0.042,0.109l0.088,0.218l0.09,0.216l0.093,0.215l0.095,0.214l0.097,0.212l0.1,0.21l0.103,0.21l0.105,0.207l0.107,0.207l0.11,0.205l0.112,0.203l0.115,0.202l0.117,0.201l0.119,0.199l0.121,0.197l0.124,0.196l0.126,0.194l0.129,0.192l0.131,0.191l0.133,0.19l0.135,0.187l0.137,0.186l0.14,0.184l0.141,0.183l0.144,0.181l0.146,0.178l0.148,0.178l0.15,0.175l0.152,0.173l0.154,0.172l0.157,0.17l0.158,0.168l0.16,0.166l0.162,0.164l0.164,0.162l0.166,0.16l0.168,0.158l0.17,0.157l0.172,0.154l0.173,0.152l0.175,0.15l0.178,0.148l0.178,0.146l0.181,0.144l0.183,0.141l0.184,0.14l0.186,0.137l0.187,0.135l0.19,0.133l0.191,0.131l0.192,0.129l0.194,0.126l0.196,0.124l0.197,0.121l0.199,0.119l0.201,0.117l0.202,0.115l0.203,0.112l0.205,0.11l0.207,0.107l0.207,0.105l0.21,0.103l0.21,0.1l0.212,0.097l0.214,0.095l0.215,0.093l0.216,0.09l0.218,0.088l0.109,0.042l0.109,0.042l0.11,0.041l0.11,0.041l0.111,0.04l0.11,0.04l0.111,0.038l0.112,0.038l0.112,0.038l0.112,0.037l0.112,0.036l0.113,0.035l0.112,0.035l0.114,0.034l0.113,0.034l0.114,0.032l0.114,0.032l0.114,0.032l0.115,0.03l0.115,0.03l0.115,0.03l0.116,0.028l0.115,0.028l0.116,0.027l0.117,0.027l0.116,0.026l0.117,0.025l0.117,0.024l0.118,0.024l0.117,0.023l0.118,0.022l0.118,0.021l0.118,0.021l0.119,0.02l0.119,0.02l0.119,0.018l0.119,0.018l0.12,0.017l0.12,0.017l0.12,0.015l0.12,0.015l0.121,0.014l0.12,0.014l0.121,0.012l0.122,0.012l0.121,0.012l0.122,0.01l0.121,0.01l0.123,0.009l0.122,0.008l0.122,0.007l0.123,0.007l0.123,0.006l0.123,0.005l0.123,0.004l0.124,0.003l0.124,0.003l0.124,0.002l0.124,0.001l0.124,0.001l0.124,-0.001l0.124,-0.001l0.124,-0.002l0.124,-0.003l0.124,-0.003l0.123,-0.004l0.123,-0.005l0.123,-0.006l0.123,-0.007l0.122,-0.007l0.122,-0.008l0.123,-0.009l0.121,-0.01l0.122,-0.01l0.121,-0.012l0.122,-0.012l0.121,-0.012l0.12,-0.014l0.121,-0.014l0.12,-0.015l0.12,-0.015l0.12,-0.017l0.12,-0.017l0.119,-0.018l0.119,-0.018l0.119,-0.02l0.119,-0.02l0.118,-0.021l0.118,-0.021l0.118,-0.022l0.117,-0.023l0.118,-0.024l0.117,-0.024l0.117,-0.025l0.116,-0.026l0.117,-0.027l0.116,-0.027l0.115,-0.028l0.116,-0.028l0.115,-0.03l0.115,-0.03l0.115,-0.03l0.114,-0.032l0.114,-0.032l0.114,-0.032l0.113,-0.034l0.114,-0.034l0.112,-0.035l0.113,-0.035l0.112,-0.036l0.112,-0.037l0.112,-0.038l0.112,-0.038l0.111,-0.038l0.11,-0.04l0.111,-0.04l0.11,-0.041l0.11,-0.041l0.109,-0.042l0.109,-0.042l0.218,-0.088l0.216,-0.09l0.215,-0.093l0.214,-0.095l0.212,-0.097l0.21,-0.1l0.21,-0.103l0.207,-0.105l0.207,-0.107l0.205,-0.11l0.203,-0.112l0.202,-0.115l0.201,-0.117l0.199,-0.119l0.197,-0.121l0.196,-0.124l0.194,-0.126l0.192,-0.129l0.191,-0.131l0.19,-0.133l0.187,-0.135l0.186,-0.137l0.184,-0.14l0.183,-0.141l0.181,-0.144l0.178,-0.146l0.178,-0.148l0.175,-0.15l0.173,-0.152l0.172,-0.154l0.17,-0.157l0.168,-0.158l0.166,-0.16l0.164,-0.162l0.162,-0.164l0.16,-0.166l0.158,-0.168l0.157,-0.17l0.154,-0.172l0.152,-0.173l0.15,-0.175l0.148,-0.178l0.146,-0.178l0.144,-0.181l0.141,-0.183l0.14,-0.184l0.137,-0.186l0.135,-0.187l0.133,-0.19l0.131,-0.191l0.129,-0.192l0.126,-0.194l0.124,-0.196l0.121,-0.197l0.119,-0.199l0.117,-0.201l0.115,-0.202l0.112,-0.203l0.11,-0.205l0.107,-0.207l0.105,-0.207l0.103,-0.21l0.1,-0.21l0.097,-0.212l0.095,-0.214l0.093,-0.215l0.09,-0.216l0.088,-0.218l0.042,-0.109l0.042,-0.109l0.041,-0.11l0.041,-0.11l0.04,-0.111l0.04,-0.11l0.038,-0.111l0.038,-0.112l0.038,-0.112l0.037,-0.112l0.036,-0.112l0.035,-0.113l0.035,-0.112l0.034,-0.114l0.034,-0.113l0.032,-0.114l0.032,-0.114l0.032,-0.114l0.03,-0.115l0.03,-0.115l0.03,-0.115l0.028,-0.116l0.028,-0.115l0.027,-0.116l0.027,-0.117l0.026,-0.116l0.025,-0.117l0.024,-0.117l0.024,-0.118l0.023,-0.117l0.022,-0.118l0.021,-0.118l0.021,-0.118l0.02,-0.119l0.02,-0.119l0.018,-0.119l0.018,-0.119l0.017,-0.12l0.017,-0.12l0.015,-0.12l0.015,-0.12l0.014,-0.121l0.014,-0.12l0.012,-0.121l0.012,-0.122l0.012,-0.121l0.01,-0.122l0.01,-0.121l0.009,-0.123l0.008,-0.122l0.007,-0.122l0.007,-0.123l0.006,-0.123l0.005,-0.123l0.004,-0.123l0.003,-0.124l0.003,-0.124l0.002,-0.124l0.001,-0.124l0.001,-0.124l-0.001,-0.124l-0.001,-0.124l-0.002,-0.124l-0.003,-0.124l-0.003,-0.124l-0.004,-0.123l-0.005,-0.123l-0.006,-0.123l-0.007,-0.123l-0.007,-0.122l-0.008,-0.122l-0.009,-0.123l-0.01,-0.121l-0.01,-0.122l-0.012,-0.121l-0.012,-0.122l-0.012,-0.121l-0.014,-0.12l-0.014,-0.121l-0.015,-0.12l-0.015,-0.12l-0.017,-0.12l-0.017,-0.12l-0.018,-0.119l-0.018,-0.119l-0.02,-0.119l-0.02,-0.119l-0.021,-0.118l-0.021,-0.118l-0.022,-0.118l-0.023,-0.117l-0.024,-0.118l-0.024,-0.117l-0.025,-0.117l-0.026,-0.116l-0.027,-0.117l-0.027,-0.116l-0.028,-0.115l-0.028,-0.116l-0.03,-0.115l-0.03,-0.115l-0.03,-0.115l-0.032,-0.114l-0.032,-0.114l-0.032,-0.114l-0.034,-0.113l-0.034,-0.114l-0.035,-0.112l-0.035,-0.113l-0.036,-0.112l-0.037,-0.112l-0.038,-0.112l-0.038,-0.112l-0.038,-0.111l-0.04,-0.11l-0.04,-0.111l-0.041,-0.11l-0.041,-0.11l-0.042,-0.109l-0.042,-0.109l-0.088,-0.218l-0.09,-0.216l-0.093,-0.215l-0.095,-0.214l-0.097,-0.212l-0.1,-0.21l-0.103,-0.21l-0.105,-0.207l-0.107,-0.207l-0.11,-0.205l-0.112,-0.203l-0.115,-0.202l-0.117,-0.201l-0.119,-0.199l-0.121,-0.197l-0.124,-0.196l-0.126,-0.194l-0.129,-0.192l-0.131,-0.191l-0.133,-0.19l-0.135,-0.187l-0.137,-0.186l-0.14,-0.184l-0.141,-0.183l-0.144,-0.181l-0.146,-0.178l-0.148,-0.178l-0.15,-0.175l-0.152,-0.173l-0.154,-0.172l-0.157,-0.17l-0.158,-0.168l-0.16,-0.166l-0.162,-0.164l-0.164,-0.162l-0.166,-0.16l-0.168,-0.158l-0.17,-0.157l-0.172,-0.154l-0.173,-0.152l-0.175,-0.15l-0.178,-0.148l-0.178,-0.146l-0.181,-0.144l-0.183,-0.141l-0.184,-0.14l-0.186,-0.137l-0.187,-0.135l-0.19,-0.133l-0.191,-0.131l-0.192,-0.129l-0.194,-0.126l-0.196,-0.124l-0.197,-0.121l-0.199,-0.119l-0.201,-0.117l-0.202,-0.115l-0.203,-0.112l-0.205,-0.11l-0.207,-0.107l-0.207,-0.105l-0.21,-0.103l-0.21,-0.1l-0.212,-0.097l-0.214,-0.095l-0.215,-0.093l-0.216,-0.09l-0.218,-0.088l-0.109,-0.042l-0.109,-0.042l-0.11,-0.041l-0.11,-0.041l-0.111,-0.04l-0.11,-0.04l-0.111,-0.038l-0.112,-0.038l-0.112,-0.038l-0.112,-0.037l-0.112,-0.036l-0.113,-0.035l-0.112,-0.035l-0.114,-0.034l-0.113,-0.034l-0.114,-0.032l-0.114,-0.032l-0.114,-0.032l-0.115,-0.03l-0.115,-0.03l-0.115,-0.03l-0.116,-0.028l-0.115,-0.028l-0.116,-0.027l-0.117,-0.027l-0.116,-0.026l-0.117,-0.025l-0.117,-0.024l-0.118,-0.024l-0.117,-0.023l-0.118,-0.022l-0.118,-0.021l-0.118,-0.021l-0.119,-0.02l-0.119,-0.02l-0.119,-0.018l-0.119,-0.018l-0.12,-0.017l-0.12,-0.017l-0.12,-0.015l-0.12,-0.015l-0.121,-0.014l-0.12,-0.014l-0.121,-0.012l-0.122,-0.012l-0.121,-0.012l-0.122,-0.01l-0.121,-0.01l-0.123,-0.009l-0.122,-0.008l-0.122,-0.007l-0.123,-0.007l-0.123,-0.006l-0.123,-0.005l-0.123,-0.004l-0.124,-0.003l-0.124,-0.003l-0.124,-0.002l-0.124,-0.001l-0.124,-0.001l-0.124,0.001Z" style="fill:url(#_Linear7);"/></g><g><path d="M52.305,18.887l2.335,0c2.585,0 3.878,-1.125 3.878,-3.376c0,-2.25 -1.293,-3.376 -3.878,-3.376l-2.335,0l0,6.752Zm0,14.652l-7.038,0l0,-27.078l11.204,0c3.041,0 5.369,0.79 6.985,2.371c1.616,1.58 2.424,3.806 2.424,6.679c0,2.873 -0.808,5.099 -2.424,6.68c-1.616,1.58 -3.944,2.37 -6.985,2.37l-4.166,0l0,8.978Z" style="fill:#5f62e4;fill-rule:nonzero;"/><rect x="67.016" y="6.461" width="7.039" height="27.077" style="fill:#5f62e4;fill-rule:nonzero;"/><path d="M95.795,15.511c-1.628,-1.987 -3.639,-2.981 -6.034,-2.981c-1.053,0 -2.029,0.192 -2.926,0.575c-0.898,0.383 -1.67,0.904 -2.317,1.562c-0.646,0.659 -1.155,1.443 -1.526,2.352c-0.371,0.91 -0.556,1.892 -0.556,2.945c0,1.077 0.185,2.071 0.556,2.981c0.371,0.91 0.886,1.7 1.544,2.37c0.659,0.67 1.431,1.197 2.317,1.58c0.885,0.383 1.843,0.575 2.873,0.575c2.25,0 4.273,-0.958 6.069,-2.873l0,8.331l-0.719,0.252c-1.077,0.383 -2.082,0.664 -3.016,0.843c-0.934,0.18 -1.856,0.27 -2.765,0.27c-1.868,0 -3.657,-0.353 -5.369,-1.06c-1.712,-0.706 -3.22,-1.699 -4.525,-2.98c-1.305,-1.281 -2.352,-2.801 -3.142,-4.561c-0.79,-1.76 -1.185,-3.681 -1.185,-5.764c0,-2.083 0.389,-3.992 1.167,-5.728c0.778,-1.735 1.819,-3.232 3.124,-4.489c1.305,-1.257 2.819,-2.238 4.543,-2.944c1.724,-0.707 3.531,-1.06 5.423,-1.06c1.077,0 2.136,0.114 3.178,0.341c1.041,0.228 2.136,0.581 3.286,1.06l0,8.403Z" style="fill:#5f62e4;fill-rule:nonzero;"/><path d="M112.888,13.392c-0.767,-0.622 -1.533,-1.083 -2.299,-1.382c-0.766,-0.3 -1.508,-0.449 -2.226,-0.449c-0.91,0 -1.652,0.215 -2.227,0.646c-0.574,0.431 -0.862,0.994 -0.862,1.688c0,0.479 0.144,0.874 0.431,1.185c0.288,0.311 0.665,0.581 1.131,0.808c0.467,0.228 0.994,0.425 1.581,0.593c0.586,0.167 1.167,0.347 1.741,0.538c2.299,0.766 3.98,1.79 5.046,3.071c1.065,1.281 1.598,2.951 1.598,5.009c0,1.389 -0.234,2.646 -0.7,3.771c-0.467,1.125 -1.15,2.089 -2.047,2.891c-0.898,0.802 -1.999,1.425 -3.304,1.867c-1.305,0.443 -2.783,0.665 -4.435,0.665c-3.424,0 -6.596,-1.018 -9.517,-3.053l3.017,-5.674c1.053,0.934 2.095,1.628 3.124,2.083c1.029,0.455 2.047,0.682 3.053,0.682c1.149,0 2.005,-0.263 2.567,-0.79c0.563,-0.526 0.844,-1.125 0.844,-1.795c0,-0.407 -0.072,-0.76 -0.215,-1.06c-0.144,-0.299 -0.383,-0.574 -0.719,-0.826c-0.335,-0.251 -0.772,-0.484 -1.31,-0.7c-0.539,-0.215 -1.191,-0.455 -1.958,-0.718c-0.909,-0.287 -1.801,-0.605 -2.675,-0.952c-0.874,-0.347 -1.652,-0.808 -2.334,-1.382c-0.683,-0.575 -1.233,-1.299 -1.652,-2.173c-0.419,-0.874 -0.629,-1.981 -0.629,-3.322c0,-1.34 0.222,-2.555 0.665,-3.645c0.443,-1.089 1.065,-2.023 1.867,-2.801c0.802,-0.778 1.784,-1.382 2.945,-1.813c1.161,-0.431 2.46,-0.647 3.896,-0.647c1.341,0 2.742,0.186 4.202,0.557c1.46,0.371 2.861,0.916 4.202,1.634l-2.801,5.494Z" style="fill:#5f62e4;fill-rule:nonzero;"/></g><defs><linearGradient id="_Linear3" x1="0" y1="0" x2="1" y2="0" gradientUnits="userSpaceOnUse" gradientTransform="matrix(61.9403,0,0,61.9403,-10.5568,20.0596)"><stop offset="0" style="stop-color:#2b53cf;stop-opacity:1"/><stop offset="1" style="stop-color:#9e74fe;stop-opacity:1"/></linearGradient><linearGradient id="_Linear4" x1="0" y1="0" x2="1" y2="0" gradientUnits="userSpaceOnUse" gradientTransform="matrix(-45.8954,45.8894,-45.8894,-45.8954,45.454,-3.17634)"><stop offset="0" style="stop-color:#74e6f3;stop-opacity:1"/><stop offset="1" style="stop-color:#466be3;stop-opacity:1"/></linearGradient><linearGradient id="_Linear5" x1="0" y1="0" x2="1" y2="0" gradientUnits="userSpaceOnUse" gradientTransform="matrix(-21.1074,-21.1074,21.1074,-21.1074,18.853,13.2535)"><stop offset="0" style="stop-color:#12adb4;stop-opacity:1"/><stop offset="1" style="stop-color:#d1e946;stop-opacity:1"/></linearGradient><linearGradient id="_Linear6" x1="0" y1="0" x2="1" y2="0" gradientUnits="userSpaceOnUse" gradientTransform="matrix(-33.3167,-33.3227,33.3227,-33.3167,38.3046,52.8618)"><stop offset="0" style="stop-color:#efed58;stop-opacity:1"/><stop offset="1" style="stop-color:#f23e2e;stop-opacity:1"/></linearGradient><linearGradient id="_Linear7" x1="0" y1="0" x2="1" y2="0" gradientUnits="userSpaceOnUse" gradientTransform="matrix(40,0,0,40,0,20)"><stop offset="0" style="stop-color:#74e6f3;stop-opacity:1"/><stop offset="1" style="stop-color:#466be3;stop-opacity:1"/></linearGradient></defs></svg>