<?xml version="1.0" encoding="UTF-8" standalone="no"?><!DOCTYPE svg PUBLIC "-//W3C//DTD SVG 1.1//EN" "http://www.w3.org/Graphics/SVG/1.1/DTD/svg11.dtd"><svg width="100%" height="100%" viewBox="0 0 102 40" version="1.1" xmlns="http://www.w3.org/2000/svg" xmlns:xlink="http://www.w3.org/1999/xlink" xml:space="preserve" xmlns:serif="http://www.serif.com/" style="fill-rule:evenodd;clip-rule:evenodd;stroke-linejoin:round;stroke-miterlimit:1.41421;"><g><path d="M10.799,18.442l3.267,0c3.618,0 5.427,-1.574 5.427,-4.723c0,-3.149 -1.809,-4.724 -5.427,-4.724l-3.267,0l0,9.447Zm0,20.503l-9.849,0l0,-37.89l15.679,0c4.254,0 7.512,1.106 9.773,3.317c2.262,2.211 3.392,5.326 3.392,9.347c0,4.02 -1.13,7.135 -3.392,9.346c-2.261,2.211 -5.519,3.317 -9.773,3.317l-5.83,0l0,12.563Z" style="fill:#5f62e4;fill-rule:nonzero;"/><rect x="31.384" y="1.055" width="9.849" height="37.889" style="fill:#5f62e4;fill-rule:nonzero;"/><path d="M71.654,13.719c-2.278,-2.781 -5.092,-4.171 -8.442,-4.171c-1.474,0 -2.839,0.268 -4.095,0.804c-1.257,0.536 -2.337,1.264 -3.242,2.186c-0.904,0.921 -1.616,2.018 -2.135,3.291c-0.52,1.273 -0.779,2.647 -0.779,4.121c0,1.507 0.259,2.898 0.779,4.171c0.519,1.273 1.239,2.378 2.16,3.316c0.922,0.938 2.002,1.675 3.242,2.211c1.239,0.536 2.579,0.804 4.02,0.804c3.149,0 5.98,-1.34 8.492,-4.02l0,11.658l-1.005,0.352c-1.507,0.536 -2.914,0.93 -4.221,1.181c-1.306,0.251 -2.596,0.377 -3.869,0.377c-2.613,0 -5.118,-0.494 -7.513,-1.482c-2.395,-0.989 -4.506,-2.379 -6.331,-4.171c-1.826,-1.793 -3.292,-3.92 -4.397,-6.382c-1.106,-2.462 -1.659,-5.151 -1.659,-8.066c0,-2.914 0.545,-5.586 1.633,-8.015c1.089,-2.428 2.546,-4.522 4.372,-6.281c1.826,-1.759 3.945,-3.132 6.357,-4.121c2.412,-0.988 4.941,-1.482 7.588,-1.482c1.508,0 2.99,0.159 4.447,0.477c1.458,0.319 2.99,0.813 4.598,1.483l0,11.759Z" style="fill:#5f62e4;fill-rule:nonzero;"/><path d="M95.572,10.754c-1.072,-0.871 -2.144,-1.516 -3.216,-1.935c-1.072,-0.419 -2.11,-0.628 -3.115,-0.628c-1.273,0 -2.312,0.301 -3.116,0.904c-0.804,0.603 -1.206,1.391 -1.206,2.362c0,0.67 0.201,1.223 0.603,1.659c0.402,0.435 0.93,0.812 1.583,1.13c0.653,0.318 1.39,0.595 2.211,0.829c0.821,0.235 1.633,0.486 2.437,0.754c3.216,1.072 5.57,2.504 7.061,4.297c1.49,1.792 2.236,4.129 2.236,7.01c0,1.943 -0.327,3.702 -0.98,5.276c-0.653,1.575 -1.608,2.923 -2.864,4.045c-1.257,1.123 -2.798,1.994 -4.623,2.613c-1.826,0.62 -3.895,0.93 -6.207,0.93c-4.79,0 -9.229,-1.424 -13.316,-4.271l4.221,-7.94c1.474,1.306 2.931,2.278 4.372,2.915c1.44,0.636 2.864,0.954 4.271,0.954c1.608,0 2.806,-0.368 3.593,-1.105c0.787,-0.737 1.181,-1.575 1.181,-2.513c0,-0.569 -0.1,-1.063 -0.301,-1.482c-0.201,-0.419 -0.536,-0.804 -1.005,-1.156c-0.469,-0.352 -1.081,-0.678 -1.835,-0.98c-0.753,-0.301 -1.666,-0.636 -2.738,-1.005c-1.273,-0.402 -2.521,-0.846 -3.744,-1.332c-1.223,-0.485 -2.312,-1.13 -3.266,-1.934c-0.955,-0.804 -1.726,-1.818 -2.312,-3.04c-0.586,-1.223 -0.879,-2.773 -0.879,-4.649c0,-1.876 0.31,-3.576 0.929,-5.1c0.62,-1.524 1.491,-2.831 2.613,-3.92c1.123,-1.089 2.496,-1.934 4.121,-2.537c1.625,-0.603 3.442,-0.905 5.452,-0.905c1.876,0 3.836,0.26 5.88,0.779c2.043,0.519 4.003,1.281 5.879,2.286l-3.92,7.689Z" style="fill:#5f62e4;fill-rule:nonzero;"/></g></svg>